<mxfile host="Electron" agent="Mozilla/5.0 (Windows NT 10.0; Win64; x64) AppleWebKit/537.36 (KHTML, like Gecko) draw.io/24.7.17 Chrome/128.0.6613.36 Electron/32.0.1 Safari/537.36" version="24.7.17">
  <diagram name="Page-1" id="CmLT57XwPKis2EmkAcIZ">
    <mxGraphModel dx="1221" dy="823" grid="1" gridSize="10" guides="1" tooltips="1" connect="1" arrows="1" fold="1" page="1" pageScale="1" pageWidth="827" pageHeight="1169" math="0" shadow="0">
      <root>
        <mxCell id="0" />
        <mxCell id="1" parent="0" />
        <mxCell id="AA2nfBfWB1NTw7dN79mQ-20" style="edgeStyle=orthogonalEdgeStyle;rounded=0;orthogonalLoop=1;jettySize=auto;html=1;exitX=0.5;exitY=1;exitDx=0;exitDy=0;entryX=0.5;entryY=0;entryDx=0;entryDy=0;fontSize=14;" edge="1" parent="1" source="AA2nfBfWB1NTw7dN79mQ-21" target="AA2nfBfWB1NTw7dN79mQ-23">
          <mxGeometry relative="1" as="geometry" />
        </mxCell>
        <mxCell id="AA2nfBfWB1NTw7dN79mQ-21" value="&lt;font style=&quot;font-size: 14px;&quot;&gt;程序开始&lt;/font&gt;" style="ellipse;whiteSpace=wrap;html=1;fontSize=14;" vertex="1" parent="1">
          <mxGeometry x="340" y="80" width="120" height="40" as="geometry" />
        </mxCell>
        <mxCell id="AA2nfBfWB1NTw7dN79mQ-40" value="" style="edgeStyle=orthogonalEdgeStyle;rounded=0;orthogonalLoop=1;jettySize=auto;html=1;fontSize=14;" edge="1" parent="1" source="AA2nfBfWB1NTw7dN79mQ-23" target="AA2nfBfWB1NTw7dN79mQ-39">
          <mxGeometry relative="1" as="geometry" />
        </mxCell>
        <mxCell id="AA2nfBfWB1NTw7dN79mQ-23" value="&lt;font style=&quot;font-size: 14px;&quot;&gt;输入n&lt;/font&gt;" style="shape=parallelogram;perimeter=parallelogramPerimeter;whiteSpace=wrap;html=1;fixedSize=1;fontSize=14;" vertex="1" parent="1">
          <mxGeometry x="340" y="160" width="120" height="40" as="geometry" />
        </mxCell>
        <mxCell id="AA2nfBfWB1NTw7dN79mQ-24" style="edgeStyle=orthogonalEdgeStyle;rounded=0;orthogonalLoop=1;jettySize=auto;html=1;entryX=0;entryY=0.5;entryDx=0;entryDy=0;fontSize=14;" edge="1" parent="1" source="AA2nfBfWB1NTw7dN79mQ-27" target="AA2nfBfWB1NTw7dN79mQ-28">
          <mxGeometry relative="1" as="geometry" />
        </mxCell>
        <mxCell id="AA2nfBfWB1NTw7dN79mQ-45" value="&lt;font style=&quot;font-size: 14px;&quot;&gt;否&lt;/font&gt;" style="edgeLabel;html=1;align=center;verticalAlign=middle;resizable=0;points=[];fontSize=14;" vertex="1" connectable="0" parent="AA2nfBfWB1NTw7dN79mQ-24">
          <mxGeometry x="-0.1704" y="-2" relative="1" as="geometry">
            <mxPoint y="-12" as="offset" />
          </mxGeometry>
        </mxCell>
        <mxCell id="AA2nfBfWB1NTw7dN79mQ-48" value="" style="edgeStyle=orthogonalEdgeStyle;rounded=0;orthogonalLoop=1;jettySize=auto;html=1;fontSize=14;" edge="1" parent="1" source="AA2nfBfWB1NTw7dN79mQ-27" target="AA2nfBfWB1NTw7dN79mQ-47">
          <mxGeometry relative="1" as="geometry" />
        </mxCell>
        <mxCell id="AA2nfBfWB1NTw7dN79mQ-58" value="&lt;font style=&quot;font-size: 14px;&quot;&gt;是&lt;/font&gt;" style="edgeLabel;html=1;align=center;verticalAlign=middle;resizable=0;points=[];" vertex="1" connectable="0" parent="AA2nfBfWB1NTw7dN79mQ-48">
          <mxGeometry x="0.2267" relative="1" as="geometry">
            <mxPoint x="10" as="offset" />
          </mxGeometry>
        </mxCell>
        <mxCell id="AA2nfBfWB1NTw7dN79mQ-27" value="i &amp;lt;= n" style="rhombus;whiteSpace=wrap;html=1;fontSize=14;" vertex="1" parent="1">
          <mxGeometry x="350" y="320" width="100" height="40" as="geometry" />
        </mxCell>
        <mxCell id="AA2nfBfWB1NTw7dN79mQ-28" value="&lt;font style=&quot;font-size: 14px;&quot;&gt;程序结束&lt;/font&gt;" style="ellipse;whiteSpace=wrap;html=1;fontSize=14;" vertex="1" parent="1">
          <mxGeometry x="520" y="320" width="120" height="40" as="geometry" />
        </mxCell>
        <mxCell id="AA2nfBfWB1NTw7dN79mQ-41" value="" style="edgeStyle=orthogonalEdgeStyle;rounded=0;orthogonalLoop=1;jettySize=auto;html=1;fontSize=14;" edge="1" parent="1" source="AA2nfBfWB1NTw7dN79mQ-39" target="AA2nfBfWB1NTw7dN79mQ-27">
          <mxGeometry relative="1" as="geometry" />
        </mxCell>
        <mxCell id="AA2nfBfWB1NTw7dN79mQ-39" value="初始化int arr[10][10]&lt;br style=&quot;font-size: 14px;&quot;&gt;int i = 0, j = 0;" style="rounded=0;whiteSpace=wrap;html=1;fontSize=14;" vertex="1" parent="1">
          <mxGeometry x="325" y="240" width="150" height="40" as="geometry" />
        </mxCell>
        <mxCell id="AA2nfBfWB1NTw7dN79mQ-53" value="" style="edgeStyle=orthogonalEdgeStyle;rounded=0;orthogonalLoop=1;jettySize=auto;html=1;fontSize=14;" edge="1" parent="1" source="AA2nfBfWB1NTw7dN79mQ-47" target="AA2nfBfWB1NTw7dN79mQ-51">
          <mxGeometry relative="1" as="geometry" />
        </mxCell>
        <mxCell id="AA2nfBfWB1NTw7dN79mQ-47" value="&lt;font style=&quot;font-size: 14px;&quot;&gt;输出 &lt;br style=&quot;font-size: 14px;&quot;&gt;n + (n - i) * 2&lt;br style=&quot;font-size: 14px;&quot;&gt;个空格&lt;/font&gt;" style="shape=parallelogram;perimeter=parallelogramPerimeter;whiteSpace=wrap;html=1;fixedSize=1;fontSize=14;" vertex="1" parent="1">
          <mxGeometry x="340" y="390" width="120" height="60" as="geometry" />
        </mxCell>
        <mxCell id="AA2nfBfWB1NTw7dN79mQ-55" value="" style="edgeStyle=orthogonalEdgeStyle;rounded=0;orthogonalLoop=1;jettySize=auto;html=1;fontSize=14;" edge="1" parent="1" source="AA2nfBfWB1NTw7dN79mQ-51" target="AA2nfBfWB1NTw7dN79mQ-54">
          <mxGeometry relative="1" as="geometry" />
        </mxCell>
        <mxCell id="AA2nfBfWB1NTw7dN79mQ-59" value="是" style="edgeLabel;html=1;align=center;verticalAlign=middle;resizable=0;points=[];fontSize=14;" vertex="1" connectable="0" parent="AA2nfBfWB1NTw7dN79mQ-55">
          <mxGeometry x="0.2296" relative="1" as="geometry">
            <mxPoint x="10" as="offset" />
          </mxGeometry>
        </mxCell>
        <mxCell id="AA2nfBfWB1NTw7dN79mQ-62" style="edgeStyle=orthogonalEdgeStyle;rounded=0;orthogonalLoop=1;jettySize=auto;html=1;exitX=0;exitY=0.5;exitDx=0;exitDy=0;entryX=0.5;entryY=1;entryDx=0;entryDy=0;" edge="1" parent="1" source="AA2nfBfWB1NTw7dN79mQ-51" target="AA2nfBfWB1NTw7dN79mQ-61">
          <mxGeometry relative="1" as="geometry" />
        </mxCell>
        <mxCell id="AA2nfBfWB1NTw7dN79mQ-63" value="&lt;font style=&quot;font-size: 14px;&quot;&gt;否&lt;/font&gt;" style="edgeLabel;html=1;align=center;verticalAlign=middle;resizable=0;points=[];" vertex="1" connectable="0" parent="AA2nfBfWB1NTw7dN79mQ-62">
          <mxGeometry x="-0.4784" y="-2" relative="1" as="geometry">
            <mxPoint y="-8" as="offset" />
          </mxGeometry>
        </mxCell>
        <mxCell id="AA2nfBfWB1NTw7dN79mQ-51" value="j &amp;lt;= n" style="rhombus;whiteSpace=wrap;html=1;fontSize=14;" vertex="1" parent="1">
          <mxGeometry x="350" y="480" width="100" height="40" as="geometry" />
        </mxCell>
        <mxCell id="AA2nfBfWB1NTw7dN79mQ-57" value="" style="edgeStyle=orthogonalEdgeStyle;rounded=0;orthogonalLoop=1;jettySize=auto;html=1;" edge="1" parent="1" source="AA2nfBfWB1NTw7dN79mQ-54" target="AA2nfBfWB1NTw7dN79mQ-56">
          <mxGeometry relative="1" as="geometry" />
        </mxCell>
        <mxCell id="AA2nfBfWB1NTw7dN79mQ-54" value="根据递推公式求&lt;br&gt;arr[i][j]" style="rounded=0;whiteSpace=wrap;html=1;fontSize=14;" vertex="1" parent="1">
          <mxGeometry x="340" y="555" width="120" height="45" as="geometry" />
        </mxCell>
        <mxCell id="AA2nfBfWB1NTw7dN79mQ-60" style="edgeStyle=orthogonalEdgeStyle;rounded=0;orthogonalLoop=1;jettySize=auto;html=1;exitX=0.5;exitY=1;exitDx=0;exitDy=0;" edge="1" parent="1" source="AA2nfBfWB1NTw7dN79mQ-56">
          <mxGeometry relative="1" as="geometry">
            <mxPoint x="400" y="460" as="targetPoint" />
            <Array as="points">
              <mxPoint x="400" y="700" />
              <mxPoint x="500" y="700" />
              <mxPoint x="500" y="460" />
            </Array>
          </mxGeometry>
        </mxCell>
        <mxCell id="AA2nfBfWB1NTw7dN79mQ-56" value="&lt;font style=&quot;font-size: 14px;&quot;&gt;输出 arr[i][j]&lt;/font&gt;" style="shape=parallelogram;perimeter=parallelogramPerimeter;whiteSpace=wrap;html=1;fixedSize=1;" vertex="1" parent="1">
          <mxGeometry x="340" y="640" width="120" height="40" as="geometry" />
        </mxCell>
        <mxCell id="AA2nfBfWB1NTw7dN79mQ-64" style="edgeStyle=orthogonalEdgeStyle;rounded=0;orthogonalLoop=1;jettySize=auto;html=1;exitX=0.5;exitY=0;exitDx=0;exitDy=0;" edge="1" parent="1" source="AA2nfBfWB1NTw7dN79mQ-61">
          <mxGeometry relative="1" as="geometry">
            <mxPoint x="400" y="300" as="targetPoint" />
            <Array as="points">
              <mxPoint x="240" y="300" />
            </Array>
          </mxGeometry>
        </mxCell>
        <mxCell id="AA2nfBfWB1NTw7dN79mQ-61" value="&lt;font style=&quot;font-size: 14px;&quot;&gt;j = 0, i++&lt;/font&gt;" style="rounded=0;whiteSpace=wrap;html=1;" vertex="1" parent="1">
          <mxGeometry x="180" y="400" width="120" height="40" as="geometry" />
        </mxCell>
      </root>
    </mxGraphModel>
  </diagram>
</mxfile>
